<svg id="visual" viewBox="0 0 960 300" width="960" height="300" xmlns="http://www.w3.org/2000/svg" xmlns:xlink="http://www.w3.org/1999/xlink" version="1.1"><rect x="0" y="0" width="960" height="300" fill="#fff"></rect><path d="M0 184L20 174C40 164 80 144 120 134.3C160 124.7 200 125.3 240 133.8C280 142.3 320 158.7 360 150.7C400 142.7 440 110.3 480 95.5C520 80.7 560 83.3 600 90.7C640 98 680 110 720 109.2C760 108.3 800 94.7 840 103C880 111.3 920 141.7 940 156.8L960 172L960 301L940 301C920 301 880 301 840 301C800 301 760 301 720 301C680 301 640 301 600 301C560 301 520 301 480 301C440 301 400 301 360 301C320 301 280 301 240 301C200 301 160 301 120 301C80 301 40 301 20 301L0 301Z" fill="#171a20" stroke-linecap="round" stroke-linejoin="miter"></path></svg>