<svg id="visual" viewBox="0 0 960 300" width="960" height="300" xmlns="http://www.w3.org/2000/svg" xmlns:xlink="http://www.w3.org/1999/xlink" version="1.1"><rect x="0" y="0" width="960" height="300" fill="#FFFFFF"></rect><path d="M0 123L22.8 116.7C45.7 110.3 91.3 97.7 137 98.8C182.7 100 228.3 115 274 125C319.7 135 365.3 140 411.2 133.2C457 126.3 503 107.7 548.8 103.8C594.7 100 640.3 111 686 117.8C731.7 124.7 777.3 127.3 823 131.3C868.7 135.3 914.3 140.7 937.2 143.3L960 146L960 301L937.2 301C914.3 301 868.7 301 823 301C777.3 301 731.7 301 686 301C640.3 301 594.7 301 548.8 301C503 301 457 301 411.2 301C365.3 301 319.7 301 274 301C228.3 301 182.7 301 137 301C91.3 301 45.7 301 22.8 301L0 301Z" fill="#171a20"></path><path d="M0 144L22.8 142C45.7 140 91.3 136 137 130.8C182.7 125.7 228.3 119.3 274 122.5C319.7 125.7 365.3 138.3 411.2 136.3C457 134.3 503 117.7 548.8 118.2C594.7 118.7 640.3 136.3 686 147.7C731.7 159 777.3 164 823 159C868.7 154 914.3 139 937.2 131.5L960 124L960 301L937.2 301C914.3 301 868.7 301 823 301C777.3 301 731.7 301 686 301C640.3 301 594.7 301 548.8 301C503 301 457 301 411.2 301C365.3 301 319.7 301 274 301C228.3 301 182.7 301 137 301C91.3 301 45.7 301 22.8 301L0 301Z" fill="#262a31"></path><path d="M0 188L22.8 180C45.7 172 91.3 156 137 159C182.7 162 228.3 184 274 189.8C319.7 195.7 365.3 185.3 411.2 184.3C457 183.3 503 191.7 548.8 190.7C594.7 189.7 640.3 179.3 686 180.2C731.7 181 777.3 193 823 200C868.7 207 914.3 209 937.2 210L960 211L960 301L937.2 301C914.3 301 868.7 301 823 301C777.3 301 731.7 301 686 301C640.3 301 594.7 301 548.8 301C503 301 457 301 411.2 301C365.3 301 319.7 301 274 301C228.3 301 182.7 301 137 301C91.3 301 45.7 301 22.8 301L0 301Z" fill="#363a43"></path><path d="M0 205L22.8 201.7C45.7 198.3 91.3 191.7 137 190.7C182.7 189.7 228.3 194.3 274 193.8C319.7 193.3 365.3 187.7 411.2 193.3C457 199 503 216 548.8 225.2C594.7 234.3 640.3 235.7 686 234C731.7 232.3 777.3 227.7 823 223.8C868.7 220 914.3 217 937.2 215.5L960 214L960 301L937.2 301C914.3 301 868.7 301 823 301C777.3 301 731.7 301 686 301C640.3 301 594.7 301 548.8 301C503 301 457 301 411.2 301C365.3 301 319.7 301 274 301C228.3 301 182.7 301 137 301C91.3 301 45.7 301 22.8 301L0 301Z" fill="#474c56"></path><path d="M0 234L22.8 236.8C45.7 239.7 91.3 245.3 137 246.8C182.7 248.3 228.3 245.7 274 241.8C319.7 238 365.3 233 411.2 230.3C457 227.7 503 227.3 548.8 228.3C594.7 229.3 640.3 231.7 686 235.5C731.7 239.3 777.3 244.7 823 248C868.7 251.3 914.3 252.7 937.2 253.3L960 254L960 301L937.2 301C914.3 301 868.7 301 823 301C777.3 301 731.7 301 686 301C640.3 301 594.7 301 548.8 301C503 301 457 301 411.2 301C365.3 301 319.7 301 274 301C228.3 301 182.7 301 137 301C91.3 301 45.7 301 22.8 301L0 301Z" fill="#585e69"></path></svg>