<svg id="visual" viewBox="0 0 960 300" width="960" height="300" xmlns="http://www.w3.org/2000/svg" xmlns:xlink="http://www.w3.org/1999/xlink" version="1.1"><rect x="0" y="0" width="960" height="300" fill="#fff"></rect><path d="M0 112L20 130.5C40 149 80 186 120 198.2C160 210.3 200 197.7 240 176.2C280 154.7 320 124.3 360 108C400 91.7 440 89.3 480 106.7C520 124 560 161 600 163.3C640 165.7 680 133.3 720 131.3C760 129.3 800 157.7 840 172.8C880 188 920 190 940 191L960 192L960 0L940 0C920 0 880 0 840 0C800 0 760 0 720 0C680 0 640 0 600 0C560 0 520 0 480 0C440 0 400 0 360 0C320 0 280 0 240 0C200 0 160 0 120 0C80 0 40 0 20 0L0 0Z" fill="#171a20" stroke-linecap="round" stroke-linejoin="miter"></path></svg>