<svg id="visual" viewBox="0 0 960 300" width="960" height="300" xmlns="http://www.w3.org/2000/svg" xmlns:xlink="http://www.w3.org/1999/xlink" version="1.1"><rect x="0" y="0" width="960" height="300" fill="#FFFFFF"></rect><path d="M0 221L22.8 213.2C45.7 205.3 91.3 189.7 137 182.5C182.7 175.3 228.3 176.7 274 186.8C319.7 197 365.3 216 411.2 226.3C457 236.7 503 238.3 548.8 226.3C594.7 214.3 640.3 188.7 686 176C731.7 163.3 777.3 163.7 823 167.5C868.7 171.3 914.3 178.7 937.2 182.3L960 186L960 0L937.2 0C914.3 0 868.7 0 823 0C777.3 0 731.7 0 686 0C640.3 0 594.7 0 548.8 0C503 0 457 0 411.2 0C365.3 0 319.7 0 274 0C228.3 0 182.7 0 137 0C91.3 0 45.7 0 22.8 0L0 0Z" fill="#171a20"></path><path d="M0 147L22.8 149.3C45.7 151.7 91.3 156.3 137 157.3C182.7 158.3 228.3 155.7 274 156.5C319.7 157.3 365.3 161.7 411.2 157.3C457 153 503 140 548.8 139.5C594.7 139 640.3 151 686 156.2C731.7 161.3 777.3 159.7 823 163.5C868.7 167.3 914.3 176.7 937.2 181.3L960 186L960 0L937.2 0C914.3 0 868.7 0 823 0C777.3 0 731.7 0 686 0C640.3 0 594.7 0 548.8 0C503 0 457 0 411.2 0C365.3 0 319.7 0 274 0C228.3 0 182.7 0 137 0C91.3 0 45.7 0 22.8 0L0 0Z" fill="#262a31"></path><path d="M0 98L22.8 102.2C45.7 106.3 91.3 114.7 137 121.7C182.7 128.7 228.3 134.3 274 128.8C319.7 123.3 365.3 106.7 411.2 110.2C457 113.7 503 137.3 548.8 136.8C594.7 136.3 640.3 111.7 686 104C731.7 96.3 777.3 105.7 823 109.7C868.7 113.7 914.3 112.3 937.2 111.7L960 111L960 0L937.2 0C914.3 0 868.7 0 823 0C777.3 0 731.7 0 686 0C640.3 0 594.7 0 548.8 0C503 0 457 0 411.2 0C365.3 0 319.7 0 274 0C228.3 0 182.7 0 137 0C91.3 0 45.7 0 22.8 0L0 0Z" fill="#363a43"></path><path d="M0 58L22.8 66.8C45.7 75.7 91.3 93.3 137 101.3C182.7 109.3 228.3 107.7 274 102.3C319.7 97 365.3 88 411.2 88.2C457 88.3 503 97.7 548.8 97.2C594.7 96.7 640.3 86.3 686 82.3C731.7 78.3 777.3 80.7 823 81.3C868.7 82 914.3 81 937.2 80.5L960 80L960 0L937.2 0C914.3 0 868.7 0 823 0C777.3 0 731.7 0 686 0C640.3 0 594.7 0 548.8 0C503 0 457 0 411.2 0C365.3 0 319.7 0 274 0C228.3 0 182.7 0 137 0C91.3 0 45.7 0 22.8 0L0 0Z" fill="#474c56"></path><path d="M0 71L22.8 68C45.7 65 91.3 59 137 55.3C182.7 51.7 228.3 50.3 274 46C319.7 41.7 365.3 34.3 411.2 37.8C457 41.3 503 55.7 548.8 61.7C594.7 67.7 640.3 65.3 686 58C731.7 50.7 777.3 38.3 823 36.8C868.7 35.3 914.3 44.7 937.2 49.3L960 54L960 0L937.2 0C914.3 0 868.7 0 823 0C777.3 0 731.7 0 686 0C640.3 0 594.7 0 548.8 0C503 0 457 0 411.2 0C365.3 0 319.7 0 274 0C228.3 0 182.7 0 137 0C91.3 0 45.7 0 22.8 0L0 0Z" fill="#585e69"></path></svg>